<?xml version="1.0" standalone="no"?>
<!DOCTYPE svg PUBLIC "-//W3C//DTD SVG 20010904//EN"
 "http://www.w3.org/TR/2001/REC-SVG-20010904/DTD/svg10.dtd">
<svg version="1.0" xmlns="http://www.w3.org/2000/svg"
 width="150.000000pt" height="150.000000pt" viewBox="0 0 150.000000 150.000000"
 preserveAspectRatio="xMidYMid meet">
<metadata>
Created by potrace 1.11, written by Peter Selinger 2001-2013
</metadata>
<g transform="translate(0.000000,150.000000) scale(0.100000,-0.100000)"
fill="#000000" stroke="none">
<path d="M0 750 l0 -750 750 0 750 0 0 750 0 750 -750 0 -750 0 0 -750z m773
215 c28 -4 37 -11 37 -26 0 -16 -4 -18 -27 -12 -16 5 -52 8 -81 8 -58 0 -82
-18 -82 -60 0 -32 28 -51 95 -66 81 -18 115 -51 115 -112 0 -38 -5 -49 -30
-71 -37 -30 -84 -41 -146 -31 -64 9 -74 14 -74 37 0 15 4 18 18 13 9 -5 47
-10 83 -13 62 -4 67 -3 87 23 12 15 22 34 22 42 0 28 -47 61 -104 73 -78 16
-109 44 -109 99 0 33 6 49 26 68 24 24 82 42 117 37 8 -2 32 -6 53 -9z m-423
-165 l0 -170 90 0 c73 0 90 -3 90 -15 0 -12 -19 -15 -115 -15 l-115 0 0 185 0
185 25 0 25 0 0 -170z m825 156 c24 -10 35 -22 35 -35 0 -20 0 -20 -42 -1 -80
36 -167 19 -202 -40 -12 -21 -18 -52 -18 -94 0 -109 42 -156 142 -156 76 0 90
11 90 70 l0 50 -45 0 c-38 0 -45 3 -45 20 0 18 7 20 65 20 l65 0 0 -80 c0 -79
0 -79 -32 -97 -22 -12 -56 -18 -104 -18 -60 0 -76 4 -111 27 -55 36 -77 93
-71 182 4 73 22 106 78 144 40 27 140 31 195 8z"/>
</g>
</svg>
