<svg class="img-fluid" id="outputsvg" xmlns="http://www.w3.org/2000/svg" style="transform: matrix(0.856831, 0, 0, 0.856831, -2.60875, 10.0452); transform-origin: 50% 50% 0; cursor: move; max-height: 368.98px; transition: none 0s ease 0s;" width="512" height="512" viewBox="0 0 5120 5120">
   <g id="l7lrlxSBw1HGt0X85lfh13X" fill="rgb(226,229,231)" style="transform: none;">
      <g>
         <path id="pqIIUw3qi" d="M1232 5109 c-68 -11 -123 -40 -172 -89 -82 -82 -100 -156 -100 -412 l0 -168 1528 -2 1529 -3 35 -27 c19 -15 44 -44 54 -65 18 -36 19 -75 19 -924 l0 -886 -27 -35 c-56 -74 78 -68 -1632 -68 -1359 0 -1536 -2 -1536 -15 0 -8 7 -15 15 -15 13 0 15 -136 17 -1067 3 -821 6 -1077 16 -1105 30 -89 121 -180 210 -210 29 -10 298 -13 1181 -16 1061 -2 1145 -1 1162 14 18 16 19 42 19 485 0 508 3 547 55 615 51 67 156 124 227 124 29 0 77 45 500 467 l468 468 -3 1340 c-2 1043 -5 1348 -15 1377 -30 89 -121 179 -210 210 -29 10 -385 13 -1662 14 -912 1 -1648 -2 -1678 -7z"></path>
         <path id="p11RWB1SdN" d="M4000 4315 c0 -33 2 -35 35 -35 33 0 35 2 35 35 0 33 -2 35 -35 35 -33 0 -35 -2 -35 -35z"></path>
      </g>
   </g>
   <g id="lfWwr82fsLnto9eWboc6nu" fill="rgb(241,86,66)" style="transform: none;">
      <g>
         <path id="ppKpXaoUV" d="M960 4336 c0 -12 -43 -15 -257 -18 -239 -3 -261 -5 -293 -24 -48 -28 -78 -75 -85 -137 -3 -29 -5 -407 -3 -842 3 -769 4 -791 23 -824 26 -44 62 -70 111 -81 23 -6 782 -10 1807 -10 1970 0 1809 -6 1865 68 l27 35 3 817 c1 448 -1 854 -5 900 l-8 85 -45 23 -44 22 -1548 0 c-1333 0 -1548 -2 -1548 -14z m1394 -541 c76 -20 134 -55 189 -114 109 -117 144 -270 93 -413 -56 -159 -177 -256 -347 -278 -98 -13 -265 -12 -311 0 -69 20 -68 14 -68 408 0 231 4 360 11 373 6 11 20 24 32 29 39 15 336 12 401 -5z m-1218 -16 c15 -17 19 -40 22 -124 l4 -103 152 -4 c173 -4 214 -16 280 -84 103 -106 113 -252 26 -373 -66 -90 -183 -126 -397 -120 -122 4 -125 5 -149 32 l-24 28 0 363 c0 351 1 363 20 384 26 27 42 28 66 1z m1859 -9 c11 -22 15 -63 15 -170 l0 -140 179 0 c165 0 180 -2 205 -21 22 -17 24 -24 15 -41 -21 -38 -68 -48 -239 -48 l-160 0 0 -130 0 -130 199 0 c185 0 200 -1 225 -21 31 -25 33 -40 5 -65 -19 -17 -41 -19 -211 -22 -224 -5 -272 1 -304 33 l-24 24 0 351 c0 348 3 382 34 402 23 15 46 7 61 -22z"></path>
         <path id="p1GnibKJ9V" d="M2020 3394 l0 -316 173 4 c152 3 177 6 212 25 51 27 91 67 118 118 25 48 36 224 18 292 -18 67 -71 134 -131 165 -51 27 -56 28 -221 28 l-169 0 0 -316z"></path>
         <path id="p1BMxKwI77" d="M1160 3259 l0 -191 153 4 c130 3 157 6 186 23 63 37 76 65 76 168 0 81 -3 96 -24 126 -38 53 -71 61 -241 61 l-150 0 0 -191z"></path>
      </g>
   </g>
   <g id="l1JGvmBiz44bwXFsjMbDSyd" fill="rgb(255,255,255)" style="transform: none;">
      <g>
         <path id="p1CTkcgfg1" d="M1065 3828 c-44 -26 -44 -25 -45 -435 l0 -392 24 -28 24 -28 156 -3 c89 -2 185 1 224 8 152 25 241 117 262 268 14 107 -16 204 -86 276 -66 68 -107 80 -280 84 l-152 4 -4 105 c-3 100 -5 106 -31 129 -30 26 -61 30 -92 12z m399 -422 c54 -22 81 -70 81 -143 0 -70 -19 -104 -76 -138 -28 -16 -56 -21 -156 -24 l-123 -3 0 161 0 161 120 0 c80 0 132 -5 154 -14z"></path>
         <path id="pEJk5DSok" d="M1923 3830 c-12 -5 -26 -18 -32 -29 -7 -13 -11 -151 -11 -403 0 -427 -1 -418 68 -438 46 -12 272 -13 371 0 225 29 370 198 371 430 0 138 -35 233 -117 321 -101 108 -174 129 -438 128 -104 0 -200 -4 -212 -9z m457 -178 c60 -31 113 -98 131 -165 16 -61 7 -184 -18 -232 -26 -51 -67 -91 -118 -118 -34 -18 -62 -22 -182 -25 l-143 -4 0 286 0 286 139 0 c132 0 141 -1 191 -28z"></path>
         <path id="pqb8jJjlb" d="M2914 3828 c-42 -20 -44 -42 -44 -439 l0 -380 24 -24 c33 -33 78 -37 333 -33 218 3 222 3 247 27 35 33 34 74 -3 112 l-29 29 -201 0 -201 0 0 100 0 100 160 0 c185 0 222 9 244 61 17 40 11 64 -22 89 -22 18 -41 20 -203 20 l-179 0 0 140 c0 104 -4 148 -15 169 -20 39 -67 51 -111 29z"></path>
      </g>
   </g>
   <g id="l5Q5UtFtHOz0dWbxjE7QLgs" fill="rgb(202,209,216)" style="transform: none;">
      <g>
         <path id="pYODmnKuL" d="M960 4395 l0 -75 1535 0 c1526 0 1536 0 1576 -20 22 -12 49 -35 60 -53 l20 -32 -3 76 c-3 64 -7 81 -30 111 -56 74 77 68 -1627 68 l-1531 0 0 -75z"></path>
         <path id="pCj3cx3Mu" d="M4305 1740 c-424 -424 -474 -470 -502 -470 -49 0 -135 -36 -181 -76 -46 -39 -97 -118 -87 -134 3 -5 1 -10 -5 -10 -7 0 -10 -7 -6 -15 3 -8 1 -15 -4 -15 -11 0 -13 -33 -4 -67 10 -36 34 -28 34 10 0 43 40 126 84 174 20 23 63 53 98 69 l63 29 480 3 c473 3 480 4 503 24 l22 21 0 464 c0 364 -3 463 -12 463 -7 0 -225 -212 -483 -470z"></path>
      </g>
   </g>
   <g id="l5I1ZFwmCHpSrdWl6IXQGrg" fill="rgb(176,183,189)" style="transform: none;">
      <g>
         <path id="pZhHKsZY9" d="M3779 1260 c-108 -18 -201 -95 -239 -197 -19 -52 -20 -74 -18 -554 l3 -499 630 630 630 630 -480 -1 c-264 -1 -501 -5 -526 -9z"></path>
      </g>
   </g>
</svg>
